<svg width="31" height="28" viewBox="0 0 31 28" fill="none" xmlns="http://www.w3.org/2000/svg">
<path d="M7.75 2.33337L3.875 7.00004V23.3334C3.875 23.9522 4.14717 24.5457 4.63164 24.9833C5.11611 25.4209 5.77319 25.6667 6.45833 25.6667H24.5417C25.2268 25.6667 25.8839 25.4209 26.3684 24.9833C26.8528 24.5457 27.125 23.9522 27.125 23.3334V7.00004L23.25 2.33337H7.75Z" stroke="white" stroke-width="2" stroke-linecap="round" stroke-linejoin="round"/>
<path d="M3.875 7H27.125" stroke="white" stroke-width="2" stroke-linecap="round" stroke-linejoin="round"/>
<path d="M20.6666 11.6666C20.6666 12.9043 20.1223 14.0913 19.1534 14.9665C18.1844 15.8416 16.8703 16.3333 15.5 16.3333C14.1297 16.3333 12.8155 15.8416 11.8466 14.9665C10.8777 14.0913 10.3333 12.9043 10.3333 11.6666" stroke="white" stroke-width="2" stroke-linecap="round" stroke-linejoin="round"/>
</svg>
