<svg width="169" height="122" viewBox="0 0 169 122" fill="none" xmlns="http://www.w3.org/2000/svg">
<path d="M167 2H2V120H167V2Z" stroke="white" stroke-width="3"/>
<path d="M39.3982 50.1951C38.9016 48.8303 38.4342 47.4959 37.996 46.1917C37.5578 44.8572 37.1051 43.5075 36.6377 42.1427H22.879L20.1185 50.1951H15.6929C16.8614 46.8589 17.9569 43.7805 18.9792 40.9599C20.0016 38.1089 20.9948 35.4096 21.9588 32.8619C22.952 30.3143 23.9306 27.888 24.8946 25.5829C25.8586 23.2476 26.8664 20.9425 27.918 18.6678H31.8177C32.8694 20.9425 33.8772 23.2476 34.8411 25.5829C35.8051 27.888 36.7691 30.3143 37.7331 32.8619C38.7263 35.4096 39.7341 38.1089 40.7565 40.9599C41.7789 43.7805 42.8743 46.8589 44.0428 50.1951H39.3982ZM35.4108 38.5032C34.476 35.8645 33.5412 33.3169 32.6065 30.8602C31.7009 28.3732 30.7515 25.9924 29.7583 23.7177C28.7359 25.9924 27.7573 28.3732 26.8226 30.8602C25.917 33.3169 25.0115 35.8645 24.1059 38.5032H35.4108ZM66.4373 46.3737V50.1951H48.1654V18.6678H52.4157V46.3737H66.4373ZM81.4218 50.8776C79.4356 50.8776 77.7117 50.5591 76.2514 49.9222C74.791 49.2853 73.5929 48.4209 72.6583 47.329C71.7238 46.2068 71.0227 44.8875 70.5551 43.3711C70.1169 41.8546 69.8978 40.2168 69.8978 38.4577V18.6678H74.1481V37.9573C74.1481 41.1115 74.8198 43.4014 76.1637 44.8269C77.5077 46.2523 79.2604 46.9651 81.4218 46.9651C82.5029 46.9651 83.4812 46.7982 84.3576 46.4646C85.2634 46.1007 86.037 45.5548 86.6799 44.8269C87.3228 44.099 87.8192 43.1739 88.1697 42.0517C88.5202 40.8992 88.6955 39.5344 88.6955 37.9573V18.6678H92.9458V38.4577C92.9458 40.2168 92.7123 41.8546 92.2447 43.3711C91.8065 44.8875 91.1055 46.2068 90.1415 47.329C89.2069 48.4209 88.0088 49.2853 86.5485 49.9222C85.1169 50.5591 83.408 50.8776 81.4218 50.8776ZM115.139 37.0019C115.606 37.6085 116.19 38.4122 116.891 39.4131C117.621 40.3836 118.366 41.4754 119.126 42.6886C119.885 43.8715 120.63 45.115 121.361 46.4192C122.12 47.7233 122.763 48.982 123.289 50.1951H118.643C118.059 49.0427 117.417 47.875 116.716 46.6921C116.044 45.5093 115.358 44.3871 114.657 43.3256C113.956 42.2337 113.254 41.2177 112.553 40.2775C111.881 39.3372 111.268 38.5183 110.713 37.8208C110.333 37.8511 109.939 37.8663 109.53 37.8663C109.15 37.8663 108.756 37.8663 108.347 37.8663H104.535V50.1951H100.285V19.1228C101.482 18.8194 102.811 18.6223 104.272 18.5313C105.762 18.41 107.12 18.3494 108.347 18.3494C112.612 18.3494 115.854 19.1834 118.074 20.8515C120.323 22.5197 121.448 25.0066 121.448 28.3125C121.448 30.4053 120.907 32.1947 119.827 33.6808C118.775 35.167 117.212 36.274 115.139 37.0019ZM108.697 22.2164C106.886 22.2164 105.499 22.2618 104.535 22.3528V34.2268H107.558C109.019 34.2268 110.333 34.1509 111.502 33.9993C112.67 33.8477 113.649 33.5595 114.438 33.1349C115.255 32.7103 115.884 32.1189 116.322 31.3606C116.76 30.5721 116.979 29.5409 116.979 28.2671C116.979 27.0842 116.76 26.0985 116.322 25.3099C115.884 24.5214 115.284 23.8996 114.525 23.4447C113.795 22.9898 112.918 22.6713 111.896 22.4893C110.903 22.3073 109.837 22.2164 108.697 22.2164ZM149.37 50.1951C148.873 48.8303 148.406 47.4959 147.967 46.1917C147.529 44.8572 147.077 43.5075 146.609 42.1427H132.85L130.09 50.1951H125.664C126.833 46.8589 127.929 43.7805 128.951 40.9599C129.973 38.1089 130.966 35.4096 131.93 32.8619C132.924 30.3143 133.902 27.888 134.866 25.5829C135.83 23.2476 136.838 20.9425 137.889 18.6678H141.789C142.841 20.9425 143.849 23.2476 144.813 25.5829C145.777 27.888 146.741 30.3143 147.705 32.8619C148.698 35.4096 149.706 38.1089 150.728 40.9599C151.75 43.7805 152.846 46.8589 154.014 50.1951H149.37ZM145.382 38.5032C144.448 35.8645 143.512 33.3169 142.578 30.8602C141.672 28.3732 140.723 25.9924 139.73 23.7177C138.708 25.9924 137.729 28.3732 136.794 30.8602C135.888 33.3169 134.983 35.8645 134.077 38.5032H145.382ZM26.1653 99.6585C30.6054 99.6585 32.8255 98.0811 32.8255 94.9271C32.8255 93.9568 32.621 93.1379 32.2121 92.4704C31.8323 91.7731 31.3065 91.1817 30.6347 90.6962C29.9628 90.1808 29.1887 89.7408 28.3124 89.3768C27.4652 89.0129 26.5597 88.6489 25.5957 88.285C24.4857 87.8905 23.434 87.4512 22.4408 86.9657C21.4476 86.4503 20.5859 85.8589 19.8556 85.1914C19.1253 84.494 18.5411 83.6752 18.1029 82.7347C17.694 81.7943 17.4894 80.6569 17.4894 79.3227C17.4894 76.5625 18.395 74.4093 20.2061 72.8625C22.0172 71.3157 24.5148 70.5423 27.6989 70.5423C29.5392 70.5423 31.2043 70.7547 32.6941 71.1792C34.2131 71.5738 35.3231 72.0131 36.0242 72.4986L34.6659 76.0926C34.0524 75.6981 33.1323 75.3192 31.9054 74.9552C30.7077 74.5607 29.3056 74.3638 27.6989 74.3638C26.881 74.3638 26.1215 74.4548 25.4204 74.6368C24.7193 74.8188 24.1059 75.0917 23.5801 75.4557C23.0543 75.8196 22.6307 76.2895 22.3094 76.866C22.0172 77.4119 21.8712 78.0638 21.8712 78.8222C21.8712 79.6717 22.0319 80.384 22.3532 80.9605C22.6745 81.5369 23.1273 82.0523 23.7115 82.5072C24.2957 82.9316 24.9676 83.3261 25.7271 83.6901C26.5158 84.054 27.3776 84.418 28.3124 84.7819C29.6269 85.3279 30.8245 85.8738 31.9054 86.4197C33.0154 86.9657 33.9648 87.6175 34.7535 88.376C35.5715 89.1344 36.1995 90.0443 36.6377 91.1056C37.0758 92.137 37.2949 93.3952 37.2949 94.8816C37.2949 97.6418 36.3164 99.7644 34.3592 101.251C32.4312 102.737 29.6999 103.48 26.1653 103.48C24.9676 103.48 23.8576 103.389 22.8352 103.207C21.842 103.056 20.951 102.874 20.1623 102.661C19.3736 102.419 18.6871 102.176 18.1029 101.933C17.5478 101.66 17.1097 101.433 16.7884 101.251L18.0591 97.6112C18.7309 98.0058 19.7534 98.4451 21.1263 98.9306C22.4992 99.4161 24.1789 99.6585 26.1653 99.6585ZM62.719 71.2702V75.0917H53.1668V102.798H48.9165V75.0917H39.3643V71.2702H62.719ZM64.7821 87.0111C64.7821 84.3121 65.1619 81.9308 65.9214 79.8686C66.7101 77.8064 67.7617 76.0926 69.0763 74.7278C70.4202 73.3324 71.9682 72.286 73.7209 71.5887C75.503 70.8913 77.3872 70.5423 79.3733 70.5423C81.3308 70.5423 83.1711 70.8913 84.8943 71.5887C86.647 72.286 88.1806 73.3324 89.4952 74.7278C90.8097 76.0926 91.8469 77.8064 92.6062 79.8686C93.3949 81.9308 93.7893 84.3121 93.7893 87.0111C93.7893 89.7102 93.3949 92.0915 92.6062 94.1537C91.8469 96.2159 90.8097 97.9446 89.4952 99.34C88.1806 100.705 86.647 101.736 84.8943 102.434C83.1711 103.131 81.3308 103.48 79.3733 103.48C77.3872 103.48 75.503 103.131 73.7209 102.434C71.9682 101.736 70.4202 100.705 69.0763 99.34C67.7617 97.9446 66.7101 96.2159 65.9214 94.1537C65.1619 92.0915 64.7821 89.7102 64.7821 87.0111ZM69.2515 87.0111C69.2515 88.9219 69.4852 90.6656 69.9526 92.243C70.4202 93.7897 71.0775 95.1091 71.9244 96.2009C72.8007 97.2928 73.8524 98.1423 75.0792 98.7486C76.3356 99.3251 77.7377 99.613 79.2857 99.613C80.8337 99.613 82.2215 99.3251 83.4484 98.7486C84.6753 98.1423 85.7125 97.2928 86.5594 96.2009C87.4358 95.1091 88.1074 93.7897 88.575 92.243C89.0426 90.6656 89.2761 88.9219 89.2761 87.0111C89.2761 85.1004 89.0426 83.3716 88.575 81.8248C88.1074 80.2475 87.4358 78.9132 86.5594 77.8214C85.7125 76.7295 84.6753 75.8957 83.4484 75.3192C82.2215 74.7128 80.8337 74.4093 79.2857 74.4093C77.7377 74.4093 76.3356 74.7128 75.0792 75.3192C73.8524 75.8957 72.8007 76.7295 71.9244 77.8214C71.0775 78.9132 70.4202 80.2475 69.9526 81.8248C69.4852 83.3716 69.2515 85.1004 69.2515 87.0111ZM114.967 89.6043C115.434 90.2107 116.019 91.0146 116.72 92.0155C117.45 92.9858 118.195 94.0776 118.955 95.2911C119.714 96.4739 120.459 97.7172 121.19 99.0216C121.949 100.326 122.592 101.584 123.118 102.798H118.472C117.888 101.645 117.246 100.477 116.545 99.2945C115.873 98.1117 115.187 96.9893 114.485 95.928C113.784 94.8361 113.083 93.8203 112.382 92.8799C111.71 91.9394 111.096 91.1205 110.542 90.4232C110.162 90.4538 109.768 90.4687 109.359 90.4687C108.979 90.4687 108.585 90.4687 108.176 90.4687H104.364V102.798H100.113V71.7252C101.311 71.4216 102.64 71.2247 104.101 71.1338C105.591 71.0122 106.949 70.9518 108.176 70.9518C112.44 70.9518 115.683 71.7856 117.903 73.4539C120.152 75.1223 121.277 77.6088 121.277 80.915C121.277 83.0077 120.736 84.7969 119.656 86.2832C118.604 87.7696 117.041 88.8764 114.967 89.6043ZM108.526 74.8188C106.715 74.8188 105.328 74.8643 104.364 74.9552V86.8292H107.387C108.847 86.8292 110.162 86.7531 111.331 86.6017C112.499 86.4503 113.478 86.1617 114.266 85.7373C115.084 85.313 115.712 84.7215 116.151 83.9631C116.589 83.1747 116.808 82.1433 116.808 80.8695C116.808 79.6866 116.589 78.7007 116.151 77.9123C115.712 77.124 115.113 76.502 114.354 76.0471C113.624 75.5922 112.747 75.2737 111.725 75.0917C110.732 74.9098 109.666 74.8188 108.526 74.8188ZM127.67 102.798V71.2702H146.205V75.0462H131.921V84.418H144.628V88.103H131.921V99.0216H147.301V102.798H127.67Z" fill="white"/>
</svg>
